<svg width="34" height="34" viewBox="0 0 34 34" fill="none" xmlns="http://www.w3.org/2000/svg">
<circle cx="17" cy="17" r="9" fill="#FD305D"/>
<path fill-rule="evenodd" clip-rule="evenodd" d="M17 34C26.3888 34 34 26.3888 34 17C34 7.61116 26.3888 0 17 0C7.61116 0 0 7.61116 0 17C0 26.3888 7.61116 34 17 34ZM17 31C24.732 31 31 24.732 31 17C31 9.26801 24.732 3 17 3C9.26801 3 3 9.26801 3 17C3 24.732 9.26801 31 17 31Z" fill="url(#paint0_linear_33149_141622)"/>
<defs>
<linearGradient id="paint0_linear_33149_141622" x1="34.2399" y1="16.999" x2="8.56533e-08" y2="16.999" gradientUnits="userSpaceOnUse">
<stop stop-color="#FE2E71"/>
<stop offset="0.48" stop-color="#FB3727"/>
<stop offset="1" stop-color="#FEEA0F"/>
</linearGradient>
</defs>
</svg>
